<svg xmlns="http://www.w3.org/2000/svg" xmlns:xlink="http://www.w3.org/1999/xlink" width="300" zoomAndPan="magnify" viewBox="0 0 224.87999 112.499997" height="150" preserveAspectRatio="xMidYMid meet" version="1.0"><defs><g/><clipPath id="b890ecdc7e"><path d="M 63.191406 25 L 113 25 L 113 68.628906 L 63.191406 68.628906 Z M 63.191406 25 " clip-rule="nonzero"/></clipPath><clipPath id="afd4abed9e"><path d="M 112 2.175781 L 161.753906 2.175781 L 161.753906 46 L 112 46 Z M 112 2.175781 " clip-rule="nonzero"/></clipPath></defs><g clip-path="url(#b890ecdc7e)"><path fill="#ff66c4" d="M 96.425781 55.832031 L 96.425781 61.839844 L 69.21875 49.199219 L 69.21875 44.324219 L 96.425781 31.683594 L 96.425781 37.695312 L 75.851562 46.707031 L 75.851562 46.820312 Z M 112.585938 25.007812 L 67.085938 25.007812 C 64.9375 25.007812 63.195312 26.75 63.195312 28.898438 L 63.195312 64.628906 C 63.195312 66.773438 64.9375 68.515625 67.085938 68.515625 L 99.953125 68.515625 L 112.585938 25.007812 " fill-opacity="1" fill-rule="nonzero"/></g><g clip-path="url(#afd4abed9e)"><path fill="#38b6ff" d="M 155.875 26.554688 L 128.667969 39.023438 L 128.667969 33.015625 L 149.699219 24.003906 L 149.699219 23.890625 L 128.667969 14.878906 L 128.667969 8.871094 L 155.875 21.339844 Z M 125.214844 2.195312 L 112.585938 45.699219 L 158.011719 45.699219 C 160.160156 45.699219 161.898438 43.960938 161.898438 41.8125 L 161.898438 6.082031 C 161.898438 3.933594 160.160156 2.195312 158.011719 2.195312 L 125.214844 2.195312 " fill-opacity="1" fill-rule="nonzero"/></g><g fill="#ffffff" fill-opacity="1"><g transform="translate(65.849536, 87.530062)"><g><path d="M 11.484375 -14.21875 L 11.484375 -11.453125 L 7.71875 -11.453125 L 7.71875 0 L 4.25 0 L 4.25 -11.453125 L 0.484375 -11.453125 L 0.484375 -14.21875 Z M 11.484375 -14.21875 "/></g></g></g><g fill="#ffffff" fill-opacity="1"><g transform="translate(78.716616, 87.530062)"><g><path d="M 13.578125 -14.21875 L 13.578125 0 L 10.109375 0 L 10.109375 -5.859375 L 4.71875 -5.859375 L 4.71875 0 L 1.25 0 L 1.25 -14.21875 L 4.71875 -14.21875 L 4.71875 -8.65625 L 10.109375 -8.65625 L 10.109375 -14.21875 Z M 13.578125 -14.21875 "/></g></g></g><g fill="#ffffff" fill-opacity="1"><g transform="translate(94.420504, 87.530062)"><g><path d="M 7.984375 0.140625 C 6.648438 0.140625 5.425781 -0.164062 4.3125 -0.78125 C 3.195312 -1.40625 2.3125 -2.273438 1.65625 -3.390625 C 1 -4.503906 0.671875 -5.757812 0.671875 -7.15625 C 0.671875 -8.539062 1 -9.785156 1.65625 -10.890625 C 2.3125 -12.003906 3.195312 -12.867188 4.3125 -13.484375 C 5.425781 -14.109375 6.648438 -14.421875 7.984375 -14.421875 C 9.316406 -14.421875 10.539062 -14.109375 11.65625 -13.484375 C 12.769531 -12.867188 13.648438 -12.003906 14.296875 -10.890625 C 14.941406 -9.785156 15.265625 -8.539062 15.265625 -7.15625 C 15.265625 -5.757812 14.9375 -4.503906 14.28125 -3.390625 C 13.632812 -2.273438 12.753906 -1.40625 11.640625 -0.78125 C 10.535156 -0.164062 9.316406 0.140625 7.984375 0.140625 Z M 7.984375 -3.015625 C 9.117188 -3.015625 10.023438 -3.394531 10.703125 -4.15625 C 11.390625 -4.914062 11.734375 -5.914062 11.734375 -7.15625 C 11.734375 -8.40625 11.390625 -9.40625 10.703125 -10.15625 C 10.023438 -10.90625 9.117188 -11.28125 7.984375 -11.28125 C 6.835938 -11.28125 5.921875 -10.910156 5.234375 -10.171875 C 4.554688 -9.429688 4.21875 -8.425781 4.21875 -7.15625 C 4.21875 -5.894531 4.554688 -4.890625 5.234375 -4.140625 C 5.921875 -3.390625 6.835938 -3.015625 7.984375 -3.015625 Z M 7.984375 -3.015625 "/></g></g></g><g fill="#ffffff" fill-opacity="1"><g transform="translate(111.238851, 87.530062)"><g><path d="M 17.375 -14.21875 L 17.375 0 L 13.90625 0 L 13.90625 -8.53125 L 10.71875 0 L 7.921875 0 L 4.71875 -8.546875 L 4.71875 0 L 1.25 0 L 1.25 -14.21875 L 5.34375 -14.21875 L 9.34375 -4.375 L 13.296875 -14.21875 Z M 17.375 -14.21875 "/></g></g></g><g fill="#ffffff" fill-opacity="1"><g transform="translate(130.731906, 87.530062)"><g><path d="M 10.109375 -2.515625 L 4.796875 -2.515625 L 3.953125 0 L 0.328125 0 L 5.46875 -14.21875 L 9.484375 -14.21875 L 14.625 0 L 10.96875 0 Z M 9.21875 -5.1875 L 7.453125 -10.390625 L 5.71875 -5.1875 Z M 9.21875 -5.1875 "/></g></g></g><g fill="#ffffff" fill-opacity="1"><g transform="translate(146.557371, 87.530062)"><g><path d="M 6.40625 0.140625 C 5.363281 0.140625 4.429688 -0.0234375 3.609375 -0.359375 C 2.785156 -0.703125 2.125 -1.203125 1.625 -1.859375 C 1.132812 -2.523438 0.875 -3.320312 0.84375 -4.25 L 4.546875 -4.25 C 4.597656 -3.726562 4.773438 -3.328125 5.078125 -3.046875 C 5.390625 -2.773438 5.796875 -2.640625 6.296875 -2.640625 C 6.816406 -2.640625 7.222656 -2.753906 7.515625 -2.984375 C 7.816406 -3.222656 7.96875 -3.550781 7.96875 -3.96875 C 7.96875 -4.320312 7.847656 -4.613281 7.609375 -4.84375 C 7.367188 -5.070312 7.078125 -5.257812 6.734375 -5.40625 C 6.390625 -5.5625 5.898438 -5.734375 5.265625 -5.921875 C 4.347656 -6.203125 3.597656 -6.484375 3.015625 -6.765625 C 2.429688 -7.046875 1.929688 -7.460938 1.515625 -8.015625 C 1.097656 -8.578125 0.890625 -9.300781 0.890625 -10.1875 C 0.890625 -11.507812 1.367188 -12.546875 2.328125 -13.296875 C 3.285156 -14.046875 4.535156 -14.421875 6.078125 -14.421875 C 7.648438 -14.421875 8.914062 -14.046875 9.875 -13.296875 C 10.832031 -12.546875 11.34375 -11.503906 11.40625 -10.171875 L 7.65625 -10.171875 C 7.632812 -10.628906 7.46875 -10.988281 7.15625 -11.25 C 6.84375 -11.519531 6.441406 -11.65625 5.953125 -11.65625 C 5.535156 -11.65625 5.195312 -11.539062 4.9375 -11.3125 C 4.6875 -11.09375 4.5625 -10.773438 4.5625 -10.359375 C 4.5625 -9.898438 4.773438 -9.539062 5.203125 -9.28125 C 5.640625 -9.019531 6.316406 -8.742188 7.234375 -8.453125 C 8.148438 -8.140625 8.894531 -7.84375 9.46875 -7.5625 C 10.039062 -7.28125 10.535156 -6.867188 10.953125 -6.328125 C 11.378906 -5.785156 11.59375 -5.085938 11.59375 -4.234375 C 11.59375 -3.421875 11.382812 -2.679688 10.96875 -2.015625 C 10.5625 -1.359375 9.960938 -0.832031 9.171875 -0.4375 C 8.390625 -0.0507812 7.46875 0.140625 6.40625 0.140625 Z M 6.40625 0.140625 "/></g></g></g><g fill="#ffffff" fill-opacity="1"><g transform="translate(44.603206, 107.972361)"><g><path d="M 11.03125 -8.0625 L 8.6875 0 L 7.515625 0 L 5.640625 -6.5 L 3.6875 0 L 2.53125 0.015625 L 0.265625 -8.0625 L 1.390625 -8.0625 L 3.15625 -1.234375 L 5.09375 -8.0625 L 6.28125 -8.0625 L 8.125 -1.25 L 9.90625 -8.0625 Z M 11.03125 -8.0625 "/></g></g></g><g fill="#ffffff" fill-opacity="1"><g transform="translate(59.782408, 107.972361)"><g><path d="M 1.9375 -7.21875 L 1.9375 -4.515625 L 4.890625 -4.515625 L 4.890625 -3.640625 L 1.9375 -3.640625 L 1.9375 -0.875 L 5.234375 -0.875 L 5.234375 0 L 0.890625 0 L 0.890625 -8.078125 L 5.234375 -8.078125 L 5.234375 -7.21875 Z M 1.9375 -7.21875 "/></g></g></g><g fill="#ffffff" fill-opacity="1"><g transform="translate(69.601183, 107.972361)"><g><path d="M 4.9375 -4.15625 C 5.226562 -4.113281 5.492188 -3.992188 5.734375 -3.796875 C 5.984375 -3.609375 6.175781 -3.367188 6.3125 -3.078125 C 6.457031 -2.796875 6.53125 -2.492188 6.53125 -2.171875 C 6.53125 -1.753906 6.425781 -1.378906 6.21875 -1.046875 C 6.007812 -0.722656 5.707031 -0.46875 5.3125 -0.28125 C 4.914062 -0.09375 4.445312 0 3.90625 0 L 0.890625 0 L 0.890625 -8.0625 L 3.78125 -8.0625 C 4.332031 -8.0625 4.800781 -7.972656 5.1875 -7.796875 C 5.570312 -7.617188 5.859375 -7.375 6.046875 -7.0625 C 6.242188 -6.75 6.34375 -6.398438 6.34375 -6.015625 C 6.34375 -5.535156 6.210938 -5.140625 5.953125 -4.828125 C 5.691406 -4.515625 5.351562 -4.289062 4.9375 -4.15625 Z M 1.9375 -4.578125 L 3.71875 -4.578125 C 4.207031 -4.578125 4.585938 -4.691406 4.859375 -4.921875 C 5.128906 -5.160156 5.265625 -5.484375 5.265625 -5.890625 C 5.265625 -6.296875 5.128906 -6.613281 4.859375 -6.84375 C 4.585938 -7.082031 4.195312 -7.203125 3.6875 -7.203125 L 1.9375 -7.203125 Z M 3.8125 -0.875 C 4.332031 -0.875 4.738281 -0.992188 5.03125 -1.234375 C 5.320312 -1.484375 5.46875 -1.828125 5.46875 -2.265625 C 5.46875 -2.710938 5.3125 -3.066406 5 -3.328125 C 4.695312 -3.585938 4.289062 -3.71875 3.78125 -3.71875 L 1.9375 -3.71875 L 1.9375 -0.875 Z M 3.8125 -0.875 "/></g></g></g><g fill="#ffffff" fill-opacity="1"><g transform="translate(80.577715, 107.972361)"><g/></g></g><g fill="#ffffff" fill-opacity="1"><g transform="translate(87.548391, 107.972361)"><g><path d="M 3.40625 -8.0625 C 4.28125 -8.0625 5.039062 -7.894531 5.6875 -7.5625 C 6.332031 -7.238281 6.828125 -6.769531 7.171875 -6.15625 C 7.515625 -5.550781 7.6875 -4.835938 7.6875 -4.015625 C 7.6875 -3.191406 7.515625 -2.476562 7.171875 -1.875 C 6.828125 -1.269531 6.332031 -0.804688 5.6875 -0.484375 C 5.039062 -0.160156 4.28125 0 3.40625 0 L 0.890625 0 L 0.890625 -8.0625 Z M 3.40625 -0.875 C 4.445312 -0.875 5.238281 -1.148438 5.78125 -1.703125 C 6.332031 -2.253906 6.609375 -3.023438 6.609375 -4.015625 C 6.609375 -5.015625 6.332031 -5.796875 5.78125 -6.359375 C 5.226562 -6.929688 4.4375 -7.21875 3.40625 -7.21875 L 1.9375 -7.21875 L 1.9375 -0.875 Z M 3.40625 -0.875 "/></g></g></g><g fill="#ffffff" fill-opacity="1"><g transform="translate(99.613216, 107.972361)"><g><path d="M 1.9375 -7.21875 L 1.9375 -4.515625 L 4.890625 -4.515625 L 4.890625 -3.640625 L 1.9375 -3.640625 L 1.9375 -0.875 L 5.234375 -0.875 L 5.234375 0 L 0.890625 0 L 0.890625 -8.078125 L 5.234375 -8.078125 L 5.234375 -7.21875 Z M 1.9375 -7.21875 "/></g></g></g><g fill="#ffffff" fill-opacity="1"><g transform="translate(109.43199, 107.972361)"><g><path d="M 7.5625 -8.0625 L 4.515625 0 L 3.296875 0 L 0.25 -8.0625 L 1.375 -8.0625 L 3.90625 -1.109375 L 6.453125 -8.0625 Z M 7.5625 -8.0625 "/></g></g></g><g fill="#ffffff" fill-opacity="1"><g transform="translate(121.137915, 107.972361)"><g><path d="M 1.9375 -7.21875 L 1.9375 -4.515625 L 4.890625 -4.515625 L 4.890625 -3.640625 L 1.9375 -3.640625 L 1.9375 -0.875 L 5.234375 -0.875 L 5.234375 0 L 0.890625 0 L 0.890625 -8.078125 L 5.234375 -8.078125 L 5.234375 -7.21875 Z M 1.9375 -7.21875 "/></g></g></g><g fill="#ffffff" fill-opacity="1"><g transform="translate(130.956692, 107.972361)"><g><path d="M 1.9375 -0.859375 L 4.765625 -0.859375 L 4.765625 0 L 0.890625 0 L 0.890625 -8.0625 L 1.9375 -8.0625 Z M 1.9375 -0.859375 "/></g></g></g><g fill="#ffffff" fill-opacity="1"><g transform="translate(139.837684, 107.972361)"><g><path d="M 4.546875 0.078125 C 3.796875 0.078125 3.113281 -0.09375 2.5 -0.4375 C 1.882812 -0.789062 1.394531 -1.28125 1.03125 -1.90625 C 0.675781 -2.539062 0.5 -3.253906 0.5 -4.046875 C 0.5 -4.828125 0.675781 -5.53125 1.03125 -6.15625 C 1.394531 -6.789062 1.882812 -7.28125 2.5 -7.625 C 3.113281 -7.976562 3.796875 -8.15625 4.546875 -8.15625 C 5.304688 -8.15625 5.992188 -7.976562 6.609375 -7.625 C 7.222656 -7.28125 7.707031 -6.796875 8.0625 -6.171875 C 8.425781 -5.546875 8.609375 -4.835938 8.609375 -4.046875 C 8.609375 -3.242188 8.425781 -2.53125 8.0625 -1.90625 C 7.707031 -1.28125 7.222656 -0.789062 6.609375 -0.4375 C 5.992188 -0.09375 5.304688 0.078125 4.546875 0.078125 Z M 4.546875 -0.828125 C 5.109375 -0.828125 5.613281 -0.957031 6.0625 -1.21875 C 6.519531 -1.488281 6.878906 -1.863281 7.140625 -2.34375 C 7.398438 -2.832031 7.53125 -3.398438 7.53125 -4.046875 C 7.53125 -4.691406 7.398438 -5.253906 7.140625 -5.734375 C 6.878906 -6.210938 6.523438 -6.582031 6.078125 -6.84375 C 5.628906 -7.113281 5.117188 -7.25 4.546875 -7.25 C 3.972656 -7.25 3.460938 -7.113281 3.015625 -6.84375 C 2.566406 -6.582031 2.210938 -6.210938 1.953125 -5.734375 C 1.703125 -5.253906 1.578125 -4.691406 1.578125 -4.046875 C 1.578125 -3.398438 1.703125 -2.832031 1.953125 -2.34375 C 2.210938 -1.863281 2.566406 -1.488281 3.015625 -1.21875 C 3.472656 -0.957031 3.984375 -0.828125 4.546875 -0.828125 Z M 4.546875 -0.828125 "/></g></g></g><g fill="#ffffff" fill-opacity="1"><g transform="translate(152.817148, 107.972361)"><g><path d="M 6.28125 -5.703125 C 6.28125 -5.035156 6.050781 -4.476562 5.59375 -4.03125 C 5.132812 -3.59375 4.4375 -3.375 3.5 -3.375 L 1.9375 -3.375 L 1.9375 0 L 0.890625 0 L 0.890625 -8.0625 L 3.5 -8.0625 C 4.40625 -8.0625 5.09375 -7.84375 5.5625 -7.40625 C 6.039062 -6.96875 6.28125 -6.398438 6.28125 -5.703125 Z M 3.5 -4.234375 C 4.082031 -4.234375 4.507812 -4.359375 4.78125 -4.609375 C 5.0625 -4.867188 5.203125 -5.234375 5.203125 -5.703125 C 5.203125 -6.703125 4.632812 -7.203125 3.5 -7.203125 L 1.9375 -7.203125 L 1.9375 -4.234375 Z M 3.5 -4.234375 "/></g></g></g><g fill="#ffffff" fill-opacity="1"><g transform="translate(163.400043, 107.972361)"><g><path d="M 1.9375 -7.21875 L 1.9375 -4.515625 L 4.890625 -4.515625 L 4.890625 -3.640625 L 1.9375 -3.640625 L 1.9375 -0.875 L 5.234375 -0.875 L 5.234375 0 L 0.890625 0 L 0.890625 -8.078125 L 5.234375 -8.078125 L 5.234375 -7.21875 Z M 1.9375 -7.21875 "/></g></g></g><g fill="#ffffff" fill-opacity="1"><g transform="translate(173.218821, 107.972361)"><g><path d="M 5.140625 0 L 3.21875 -3.296875 L 1.9375 -3.296875 L 1.9375 0 L 0.890625 0 L 0.890625 -8.0625 L 3.5 -8.0625 C 4.101562 -8.0625 4.613281 -7.957031 5.03125 -7.75 C 5.457031 -7.539062 5.773438 -7.257812 5.984375 -6.90625 C 6.191406 -6.550781 6.296875 -6.148438 6.296875 -5.703125 C 6.296875 -5.140625 6.132812 -4.644531 5.8125 -4.21875 C 5.5 -3.800781 5.019531 -3.519531 4.375 -3.375 L 6.40625 0 Z M 1.9375 -4.140625 L 3.5 -4.140625 C 4.070312 -4.140625 4.5 -4.28125 4.78125 -4.5625 C 5.0625 -4.84375 5.203125 -5.222656 5.203125 -5.703125 C 5.203125 -6.179688 5.0625 -6.550781 4.78125 -6.8125 C 4.5 -7.070312 4.070312 -7.203125 3.5 -7.203125 L 1.9375 -7.203125 Z M 1.9375 -4.140625 "/></g></g></g></svg>